<svg id="Layer_1" data-name="Layer 1" xmlns="http://www.w3.org/2000/svg" viewBox="0 0 1984.25 240.94"><defs><style>.cls-1{fill:#fff;}</style></defs><path class="cls-1" d="M1984.25,180.17c-1.66-10.53-3.33-21.07-5-31.78l5-.18v-3.68c-4.69.29-5.86-1.63-6.89-7.93-.92-5.63-1.79-11.28-2.66-16.92,0-.29.16-.62.37-1.32a21.33,21.33,0,0,0,9.18,2.66v-3.94a17.89,17.89,0,0,1-2.35-.37c-5.81-1.3-8.35-4.12-9.31-10.06-1.87-11.55-3.72-23.11-5.73-35.62a55.3,55.3,0,0,0,17.39,4.87V72.1a42.64,42.64,0,0,1-14.4-4.19c-1.74-.84-3.76-2.89-4.06-4.67-2.77-16-5.17-32-7.74-48.31,10.67,6.06,19,9.68,26.2,10.83V22.09c-13.93-.69-24.33-8.72-30.92-22.09-.63,2.59-.43,6.11-2.07,7.73-9.38,9.3-20.12,16.62-33.25,19.45-9.87,2.13-18.54.1-24.88-8.55a21.31,21.31,0,0,0-1.59-1.94c-.44-.49-1-.9-2.33-2.16,5.23,15.32.92,27.94-6.29,39.93-9,15-27.82,19.1-42.14,9.32-1.59-1.08-3.23-2.06-5.69-3.63,11.09,17.54,13,29.6,5.68,41.56-9,14.82-22.55,20.57-39.89,18.37,8.71,2.55,8.73,9.48,8.76,16.34a40.93,40.93,0,0,1-.44,5.52,74.85,74.85,0,0,1-11.66,30.84c-5.9,9.21-10.89,19.52-21.63,23.52,1,.35,2.1.66,3.18,1-207.49,5.93-439.52,11.63-580.09,11.63C1012.5,208.89,980,104,759,104c-225,0-151,58.62-331,58.62-107,0-124-45.51-212-45.51-72.83,0-157.3,36.6-216,49.22v74.58H1984.25Zm-10.19-38.26a3.6,3.6,0,0,1-1.46,2.68,10,10,0,0,1-14.88-3.16c-3.44-6.46-6.78-13-10.5-20.13,8.59,2.66,15.65.28,23-4.31C1971.59,125.58,1972.92,133.73,1974.06,141.91Zm-51.61,1.71c1,.93,1.4,3.1,1.2,4.57-.9,6.84-4.53,11.78-11,14.34-1.17.46-2.78.87-3.83.43-13.74-5.76-27.41-11.67-42-18,14.84-4.39,22.47-14.25,26-28.77C1903.13,125.75,1912.88,134.59,1922.45,143.62Zm-25.56-29c20.91-5.28,25-9.63,27.15-29.34,5.59,10.75,10.78,20.28,15.54,30,3.12,6.39-.67,19-6.65,22.66-3.9,2.39-7.89,3.09-11.81-.7C1913.25,129.67,1905.14,122.31,1896.89,114.62ZM1929,149.71c3.42,3.11,7.73,6.76,11.74,10.72,3.06,3,2.64,10.55-.72,13.23a5.19,5.19,0,0,1-4.36.7c-6.45-2.51-12.78-5.35-18.35-7.74Zm-.25-5.75c9.63-2.69,13.55-9.7,15.74-19.47,4.09,7.91,8,14.66,11.1,21.73,2.19,4.91-.93,11-6.13,12.43a7.82,7.82,0,0,1-6.11-1.17C1938.43,153.46,1934,148.93,1928.7,144Zm40.49-33.07a3.51,3.51,0,0,1-1,2.54,16.74,16.74,0,0,1-27-3.91c-5.42-10.3-10.78-20.64-16.6-31.78,14.22,4.92,26.34.68,38.61-5.95C1965.22,85.09,1967.26,98,1969.19,110.89Zm-16.06-99a37,37,0,0,1,1,3.73c2.58,16.08,5.06,32.18,7.76,48.24.47,2.78-.07,4.2-2.63,5.54-11,5.77-22.18,9.43-34.34,3.87a10.59,10.59,0,0,1-4.78-4.09c-6.75-12.54-13.25-25.21-19.79-37.86a4.2,4.2,0,0,1-.16-1.46C1917.51,34.54,1929.38,30.53,1953.13,11.9ZM1882,62c7.6-8.5,11.43-18.7,13.57-31.44,8,15.37,15.71,29.2,22.31,43.58,3.23,7,2.81,15.14.07,22.66-3.48,9.53-15.7,15.77-25.39,13.14a5.38,5.38,0,0,1-2.15-1.17C1877.69,97,1865,85.27,1851.29,72.6,1864,73.9,1874.09,70.83,1882,62ZM1847.7,74.76c5.48,5,10.2,9.2,14.87,13.49,8,7.35,16.07,14.61,23.82,22.21a8.12,8.12,0,0,1,2.09,6.33c-1.8,8.89-6.26,16.22-14.31,20.82-6.93,4-13.65,5.55-21.63,1.52-11.24-5.68-23.11-10.08-35.54-15.37C1839.78,116.83,1852.34,99.76,1847.7,74.76Zm-22.64,119.48c-12-1.24-24.18-.67-37.22-.9,15.53-19.81,28.23-40,25.06-67,14.78,6.33,29,12.29,43.06,18.65,1.28.58,2.17,3.86,1.93,5.72-1.6,12.44-7.75,23-13.94,33.59C1839.58,191.73,1834.25,195.19,1825.06,194.24Zm69.43-.37-21.81.65c-10.12-.17-20.4-.17-31.14-.31,10.56-14.52,18.76-29,20.89-46.67,10.76,4.56,21.29,9,31.81,13.5,2.6,1.11,5.1,2.63,7.8,3.3,5.64,1.39,6.44,4.91,4.82,9.73-1.33,4-2.43,8.05-4.29,11.74C1900.62,189.69,1898,192.45,1894.49,193.87Zm28.28-.85-19.51.59,9.79-24.43,21.47,9.13A18.8,18.8,0,0,1,1922.77,193Zm7.48-.23,9.45-12.37,26.11,11.29Zm40.52-3.27-27.85-11.81c1.49-3.75,2.89-7.25,4.46-11.19l23.9,22.22Zm5.26-1.74-25.91-23.84,10-9.47C1965.59,165,1971.3,176,1977,187Zm4.08-3.33q-8.76-16.68-17.47-33.32l12.66-2.33c1.84,11.57,3.73,23.43,5.62,35.3Z"/></svg>