<?xml version="1.0" encoding="utf-8"?>
<!-- Generator: Adobe Illustrator 25.3.1, SVG Export Plug-In . SVG Version: 6.00 Build 0)  -->
<svg version="1.1" id="Layer_1" xmlns="http://www.w3.org/2000/svg" xmlns:xlink="http://www.w3.org/1999/xlink" x="0px" y="0px"
	 viewBox="0 0 1984.2 240.9" style="enable-background:new 0 0 1984.2 240.9;" xml:space="preserve">
<style type="text/css">
	.st0{fill:#2e303e;}
</style>
<path class="st0" d="M1984.3,180.2c-1.7-10.5-3.3-21.1-5-31.8c1.7-0.1,3.4-0.1,5-0.2v-3.7c-4.7,0.3-5.9-1.6-6.9-7.9
	c-0.9-5.6-1.8-11.3-2.7-16.9c0-0.3,0.2-0.6,0.4-1.3c3,1.7,6.1,2.5,9.2,2.7v-3.9c-0.8-0.1-1.6-0.2-2.4-0.4c-5.8-1.3-8.4-4.1-9.3-10.1
	c-1.9-11.6-3.7-23.1-5.7-35.6c5.9,2.6,11.6,4.3,17.4,4.9v-3.8c-4.9-0.5-9.7-1.9-14.4-4.2c-1.7-0.8-3.8-2.9-4.1-4.7
	c-2.8-15.9-5.2-32-7.7-48.3c10.7,6.1,18.9,9.7,26.2,10.8v-3.7c-13.9-0.7-24.3-8.7-30.9-22.1c-0.6,2.6-0.4,6.1-2.1,7.7
	c-9.4,9.3-20.1,16.6-33.2,19.5c-9.9,2.1-18.5,0.1-24.9-8.6c-0.5-0.7-1-1.3-1.6-1.9c-0.4-0.5-1-0.9-2.3-2.2
	c5.2,15.3,0.9,27.9-6.3,39.9c-9,15-27.8,19.1-42.1,9.3c-1.6-1.1-3.2-2.1-5.7-3.6c11.1,17.5,13,29.6,5.7,41.6
	c-9,14.8-22.6,20.6-39.9,18.4c8.7,2.6,8.7,9.5,8.8,16.3c0,1.8-0.2,3.7-0.4,5.5c-1.5,11.2-5.7,21.5-11.7,30.8
	c-5.9,9.2-10.9,19.5-21.6,23.5c1,0.3,2.1,0.7,3.2,1c-207.5,5.9-439.5,11.6-580.1,11.6c-186.5,0-219-104.9-440-104.9
	c-225,0-151,58.6-331,58.6c-107,0-124-45.5-212-45.5c-72.8,0-157.3,36.6-216,49.2v74.6h1984.3V180.2z M1974.1,141.9
	c0.1,0.8-0.7,2.1-1.5,2.7c-5,3.7-12,2.2-14.9-3.2c-3.4-6.5-6.8-13-10.5-20.1c8.6,2.7,15.6,0.3,23-4.3
	C1971.6,125.6,1972.9,133.7,1974.1,141.9z M1922.5,143.6c1,0.9,1.4,3.1,1.2,4.6c-0.9,6.8-4.5,11.8-11,14.3c-1.2,0.5-2.8,0.9-3.8,0.4
	c-13.7-5.8-27.4-11.7-42-17.9c14.8-4.4,22.5-14.3,26-28.8C1903.1,125.8,1912.9,134.6,1922.5,143.6z M1896.9,114.6
	c20.9-5.3,25-9.6,27.1-29.3c5.6,10.8,10.8,20.3,15.5,30c3.1,6.4-0.7,19-6.7,22.7c-3.9,2.4-7.9,3.1-11.8-0.7
	C1913.2,129.7,1905.1,122.3,1896.9,114.6z M1928.9,149.7c3.4,3.1,7.7,6.8,11.7,10.7c3.1,3,2.6,10.6-0.7,13.2c-1,0.8-3.1,1.2-4.4,0.7
	c-6.5-2.5-12.8-5.4-18.4-7.7C1921.2,161,1925,155.4,1928.9,149.7z M1928.7,144c9.6-2.7,13.6-9.7,15.7-19.5c4.1,7.9,8,14.7,11.1,21.7
	c2.2,4.9-0.9,11-6.1,12.4c-1.8,0.5-4.7,0-6.1-1.2C1938.4,153.5,1934,148.9,1928.7,144z M1969.2,110.9c0.1,0.8-0.4,1.9-1,2.5
	c-8.3,8.3-21.6,6.4-27.1-3.9c-5.4-10.3-10.8-20.6-16.6-31.8c14.2,4.9,26.3,0.7,38.6-6C1965.2,85.1,1967.3,98,1969.2,110.9z
	 M1953.1,11.9c0.4,1.4,0.9,2.5,1.1,3.7c2.6,16.1,5.1,32.2,7.8,48.2c0.5,2.8-0.1,4.2-2.6,5.5c-11,5.8-22.2,9.4-34.3,3.9
	c-1.9-0.8-3.8-2.3-4.8-4.1c-6.7-12.5-13.2-25.2-19.8-37.9c-0.2-0.4-0.1-1-0.2-1.5C1917.5,34.5,1929.4,30.5,1953.1,11.9z M1882,62
	c7.6-8.5,11.4-18.7,13.6-31.4c8,15.4,15.7,29.2,22.3,43.6c3.2,7.1,2.8,15.1,0.1,22.7c-3.5,9.5-15.7,15.8-25.4,13.1
	c-0.8-0.2-1.6-0.6-2.2-1.2c-12.7-11.7-25.4-23.5-39.1-36.1C1864,73.9,1874.1,70.8,1882,62z M1847.7,74.8c5.5,5,10.2,9.2,14.9,13.5
	c8,7.3,16.1,14.6,23.8,22.2c1.4,1.4,2.5,4.4,2.1,6.3c-1.8,8.9-6.3,16.2-14.3,20.8c-6.9,4-13.6,5.5-21.6,1.5
	c-11.2-5.7-23.1-10.1-35.5-15.4C1839.8,116.8,1852.3,99.8,1847.7,74.8z M1825.1,194.2c-12-1.2-24.2-0.7-37.2-0.9
	c15.5-19.8,28.2-40,25.1-67.1c14.8,6.3,29,12.3,43.1,18.7c1.3,0.6,2.2,3.9,1.9,5.7c-1.6,12.4-7.8,23-13.9,33.6
	C1839.6,191.7,1834.3,195.2,1825.1,194.2z M1894.5,193.9c-7.2,0.2-14.5,0.4-21.8,0.7c-10.1-0.2-20.4-0.2-31.1-0.3
	c10.6-14.5,18.8-28.9,20.9-46.7c10.8,4.6,21.3,9,31.8,13.5c2.6,1.1,5.1,2.6,7.8,3.3c5.6,1.4,6.4,4.9,4.8,9.7
	c-1.3,4-2.4,8.1-4.3,11.7C1900.6,189.7,1898,192.5,1894.5,193.9z M1922.8,193c-6.4,0.2-13,0.4-19.5,0.6c3.1-7.8,6.4-15.9,9.8-24.4
	c6.6,2.8,14,6,21.5,9.1C1933.3,185.3,1929.1,190.3,1922.8,193z M1930.2,192.8c3.2-4.2,6.2-8.1,9.5-12.4c8.5,3.7,17.3,7.5,26.1,11.3
	C1954.2,192.1,1942.3,192.4,1930.2,192.8z M1970.8,189.5c-9.3-3.9-18.6-7.9-27.9-11.8c1.5-3.8,2.9-7.3,4.5-11.2
	c8,7.4,15.9,14.8,23.9,22.2C1971.1,189,1970.9,189.3,1970.8,189.5z M1976,187.8c-8.7-8-17.4-16-25.9-23.8c3.4-3.2,6.5-6.2,10-9.5
	c5.5,10.5,11.2,21.5,16.9,32.5C1976.7,187.3,1976.4,187.5,1976,187.8z M1980.1,184.4c-5.8-11.1-11.7-22.2-17.5-33.3
	c4.3-0.8,8.3-1.5,12.7-2.3c1.8,11.6,3.7,23.4,5.6,35.3C1980.6,184.2,1980.4,184.3,1980.1,184.4z"/>
</svg>
