<svg id="_1024" data-name="1024" xmlns="http://www.w3.org/2000/svg" viewBox="0 0 1024 1024"><defs><style>.cls-1{fill:#fff;}</style></defs><path class="cls-1" d="M216,164.76q-21.69,7.77-30.64,26.1t-9,51.8V382.11q0,41.43-19.1,70.52t-56.51,43q37.39,13.95,56.51,42.84t19.1,70.72V781.34q0,33.48,9,51.8T216,859.24Q237.71,867,276.71,867v53H240.1q-74,0-106.26-31.48T101.61,781.34V609.22q0-40.65-17.12-62.76T24,524.35V467q43.36,0,60.49-21.92t17.12-62.95V242.66q0-75.71,32.23-107.19T240.1,104h36.61v53Q237.71,157,216,164.76Z"/><path class="cls-1" d="M639.44,412.4V354.8l184.32-3.6v61.2L785.6,421,689.84,740H579.68L522.8,556.4l-13-56.16-18,78.48L439.28,740H329.84L231.92,422.48,200.24,412.4V354.8l188.64-3.6v61.2L343.52,421,391,623.36l76.32-259.92,95-15.84,78.48,275.76L683.36,423.2Z"/><path class="cls-1" d="M890.16,135.28q32.24,31.28,32.23,107.38V382.11q0,40.65,17.12,62.75T1000,467v57.37q-43.38,0-60.49,21.92t-17.12,63V781.34q0,75.69-32.23,107.18T783.91,920H747.29V867q39,0,60.69-7.76t30.64-26.1q9-18.33,9-51.8V609.22q0-41.44,19.1-70.52t56.51-43q-37.41-13.94-56.51-42.83t-19.1-70.72V242.66q0-33.48-9-51.8T808,164.76Q786.28,157,747.29,157V104h36.62Q857.92,104,890.16,135.28Z"/></svg>